<svg width="59" height="59" viewBox="0 0 59 59" fill="none" xmlns="http://www.w3.org/2000/svg"><path d="M29.5 0l25.548 14.75v29.5L29.5 59 3.952 44.25v-29.5L29.5 0z" fill="#F7F4EC"/><path d="M26.763 1.58L28.588.527l.25.433.662-.383.662.383.25-.433 1.825 1.053-.25.433 1.825 1.054.25-.433 1.825 1.054-.25.433 1.825 1.053.25-.433 1.825 1.054-.25.433 1.825 1.053.25-.433 1.824 1.054-.25.433 1.825 1.053.25-.433 1.825 1.054-.25.433 1.825 1.053.25-.432 1.825 1.053-.25.433 1.825 1.054.25-.433 1.824 1.053-.25.433.663.383v.765h.5v2.107h-.5v2.107h.5v2.107h-.5v2.107h.5v2.107h-.5v2.107h.5v2.108h-.5v2.107h.5v2.107h-.5v2.107h.5v2.107h-.5v2.107h.5v2.107h-.5v.765l-.663.383.25.433-1.825 1.053-.25-.433-1.824 1.054.25.433-1.825 1.053-.25-.432-1.825 1.053.25.433-1.825 1.054-.25-.433-1.825 1.053.25.433-1.825 1.054-.25-.433-1.824 1.053.25.433-1.825 1.054-.25-.433-1.825 1.053.25.434-1.825 1.053-.25-.433-1.825 1.054.25.433-1.825 1.053-.25-.433-.662.383-.662-.383-.25.433-1.825-1.053.25-.433-1.825-1.054-.25.433-1.825-1.053.25-.434-1.825-1.053-.25.433-1.825-1.054.25-.433-1.825-1.053-.25.433-1.824-1.054.25-.433-1.825-1.053-.25.433-1.825-1.054.25-.433-1.825-1.053-.25.432-1.825-1.053.25-.433-1.824-1.054-.25.433-1.825-1.053.25-.433-.663-.383v-.765h-.5V41.09h.5v-2.107h-.5v-2.107h.5v-2.107h-.5V32.66h.5v-2.107h-.5v-2.108h.5V26.34h-.5v-2.107h.5v-2.107h-.5v-2.107h.5V17.91h-.5v-2.107h.5v-.765l.663-.383-.25-.433L6.69 13.17l.25.433 1.824-1.054-.25-.433 1.825-1.053.25.432 1.825-1.053-.25-.433 1.825-1.054.25.433 1.825-1.053-.25-.433 1.825-1.054.25.433 1.824-1.053-.25-.433 1.825-1.054.25.433 1.825-1.053-.25-.434 1.825-1.053.25.433 1.825-1.054-.25-.433z" stroke="#592F03" stroke-opacity=".3" stroke-dasharray="2 2"/><path d="M34.063 32.786a1.728 1.728 0 011.195.468c.152.146.272.316.36.511.088.195.132.405.132.628 0 .223-.044.432-.132.628a1.608 1.608 0 01-.36.51 1.728 1.728 0 01-1.195.469 1.728 1.728 0 01-1.196-.469 1.608 1.608 0 01-.36-.51 1.511 1.511 0 01-.132-.628c0-.173.032-.352.097-.536h-4.694c.065.184.097.363.097.536 0 .223-.044.432-.132.628a1.608 1.608 0 01-.36.51 1.728 1.728 0 01-1.195.469 1.728 1.728 0 01-1.196-.469 1.608 1.608 0 01-.36-.51 1.511 1.511 0 01-.132-.628c0-.307.086-.592.26-.854a1.63 1.63 0 01.698-.594L21.661 22.07H20V21h2.47l.747 2.143H38l-2.62 7.5h-9.535l.747 2.143h7.47zm-10.468-8.572l1.872 5.357h9.096l1.872-5.357h-12.84zm3.155 10.179a.503.503 0 00-.167-.377.554.554 0 00-.395-.159.554.554 0 00-.396.16.503.503 0 00-.167.376c0 .145.056.27.167.377a.553.553 0 00.395.159.554.554 0 00.396-.16.503.503 0 00.167-.376zm7.313.536a.554.554 0 00.395-.16.503.503 0 00.167-.376.503.503 0 00-.167-.377.554.554 0 00-.395-.159.554.554 0 00-.396.16.503.503 0 00-.167.376c0 .145.056.27.167.377a.553.553 0 00.395.159z" fill="#592F03"/></svg>