<svg width="12" height="14" viewBox="0 0 12 14" fill="none" xmlns="http://www.w3.org/2000/svg"><path opacity=".7" d="M12 2.625h-.923v10.063c0 .182-.036.353-.108.512-.072.16-.17.299-.296.417a1.425 1.425 0 01-.98.383H2.307a1.424 1.424 0 01-.981-.383 1.315 1.315 0 01-.296-.417 1.23 1.23 0 01-.108-.512V2.624H0V1.75h3.692V.875a.81.81 0 01.072-.342.889.889 0 01.199-.277A.942.942 0 014.615 0h2.77a.937.937 0 01.652.256.91.91 0 01.199.277.81.81 0 01.072.342v.875H12v.875zM4.615 1.75h2.77V.875h-2.77v.875zm5.539.875H1.846v10.063a.41.41 0 00.137.307c.092.087.2.13.325.13h7.384a.456.456 0 00.325-.13.41.41 0 00.137-.307V2.624zm-5.539 8.75h-.923v-7h.923v7zm1.847 0h-.924v-7h.924v7zm1.846 0h-.923v-7h.923v7z" fill="#333"/></svg>