<svg class="header__menu-icon header__menu-icon--cross inactive" id="burgerCross" width="59" height="59" viewBox="0 0 59 59" fill="none" xmlns="http://www.w3.org/2000/svg"><path fill="#F7F4EC" opacity=".3" d="M26.763 1.58L28.588.527l.25.433.662-.383.662.383.25-.433 1.825 1.053-.25.433 1.825 1.054.25-.433 1.825 1.054-.25.433 1.825 1.053.25-.433 1.825 1.054-.25.433 1.825 1.053.25-.433 1.824 1.054-.25.433 1.825 1.053.25-.433 1.825 1.054-.25.433 1.825 1.053.25-.432 1.825 1.053-.25.433 1.825 1.054.25-.433 1.824 1.053-.25.433.663.383v.765h.5v2.107h-.5v2.107h.5v2.107h-.5v2.107h.5v2.107h-.5v2.107h.5v2.108h-.5v2.107h.5v2.107h-.5v2.107h.5v2.107h-.5v2.107h.5v2.107h-.5v.765l-.663.383.25.433-1.825 1.053-.25-.433-1.824 1.054.25.433-1.825 1.053-.25-.432-1.825 1.053.25.433-1.825 1.054-.25-.433-1.825 1.053.25.433-1.825 1.054-.25-.433-1.824 1.053.25.433-1.825 1.054-.25-.433-1.825 1.053.25.434-1.825 1.053-.25-.433-1.825 1.054.25.433-1.825 1.053-.25-.433-.662.383-.662-.383-.25.433-1.825-1.053.25-.433-1.825-1.054-.25.433-1.825-1.053.25-.434-1.825-1.053-.25.433-1.825-1.054.25-.433-1.825-1.053-.25.433-1.824-1.054.25-.433-1.825-1.053-.25.433-1.825-1.054.25-.433-1.825-1.053-.25.432-1.825-1.053.25-.433-1.824-1.054-.25.433-1.825-1.053.25-.433-.663-.383v-.765h-.5V41.09h.5v-2.107h-.5v-2.107h.5v-2.107h-.5V32.66h.5v-2.107h-.5v-2.108h.5V26.34h-.5v-2.107h.5v-2.107h-.5v-2.107h.5V17.91h-.5v-2.107h.5v-.765l.663-.383-.25-.433L6.69 13.17l.25.433 1.824-1.054-.25-.433 1.825-1.053.25.432 1.825-1.053-.25-.433 1.825-1.054.25.433 1.825-1.053-.25-.433 1.825-1.054.25.433 1.824-1.053-.25-.433 1.825-1.054.25.433 1.825-1.053-.25-.434 1.825-1.053.25.433 1.825-1.054-.25-.433z" stroke="#592F03" stroke-dasharray="2 2"/><path transform="rotate(-45 21.22 35.364)" fill="#592F03" d="M21.221 35.364h20v2h-20z"/><path transform="rotate(-135 35.363 36.778)" fill="#592F03" d="M35.363 36.778h20v2h-20z"/></svg>