<?xml version="1.0" encoding="utf-8"?><svg width="59" height="59" fill="none" xmlns="http://www.w3.org/2000/svg" viewBox="0 0 59 59"><path d="M24.721 25.763l.12-.11-.12-.111-.711-.653-.102-.092-.101.092-4.908 4.5-.121.111.12.11 4.909 4.5.101.093.102-.092.711-.653.12-.11-.12-.11-3.4-3.124H38.15v-1.228H21.321l3.4-3.123z" fill="#333" stroke="#000" stroke-width=".3"/><path opacity=".3" d="M26.763 1.58L28.588.527l.25.433.662-.383.662.383.25-.433 1.825 1.053-.25.433 1.825 1.054.25-.433 1.825 1.054-.25.433 1.825 1.053.25-.433 1.825 1.054-.25.433 1.825 1.053.25-.433 1.824 1.054-.25.433 1.825 1.053.25-.433 1.825 1.054-.25.433 1.825 1.053.25-.432 1.825 1.053-.25.433 1.825 1.054.25-.433 1.824 1.053-.25.433.663.383v.765h.5v2.107h-.5v2.107h.5v2.107h-.5v2.107h.5v2.107h-.5v2.107h.5v2.108h-.5v2.107h.5v2.107h-.5v2.107h.5v2.107h-.5v2.107h.5v2.107h-.5v.765l-.663.383.25.433-1.825 1.053-.25-.433-1.824 1.054.25.433-1.825 1.053-.25-.432-1.825 1.053.25.433-1.825 1.054-.25-.433-1.825 1.053.25.433-1.825 1.054-.25-.433-1.824 1.053.25.433-1.825 1.054-.25-.433-1.825 1.053.25.434-1.825 1.053-.25-.433-1.825 1.054.25.433-1.825 1.053-.25-.433-.662.383-.662-.383-.25.433-1.825-1.053.25-.433-1.825-1.054-.25.433-1.825-1.053.25-.434-1.825-1.053-.25.433-1.825-1.054.25-.433-1.825-1.053-.25.433-1.824-1.054.25-.433-1.825-1.053-.25.433-1.825-1.054.25-.433-1.825-1.053-.25.432-1.825-1.053.25-.433-1.824-1.054-.25.433-1.825-1.053.25-.433-.663-.383v-.765h-.5V41.09h.5v-2.107h-.5v-2.107h.5v-2.107h-.5V32.66h.5v-2.107h-.5v-2.108h.5V26.34h-.5v-2.107h.5v-2.107h-.5v-2.107h.5V17.91h-.5v-2.107h.5v-.765l.663-.383-.25-.433L6.69 13.17l.25.433 1.824-1.054-.25-.433 1.825-1.053.25.432 1.825-1.053-.25-.433 1.825-1.054.25.433 1.825-1.053-.25-.433 1.825-1.054.25.433 1.824-1.053-.25-.433 1.825-1.054.25.433 1.825-1.053-.25-.434 1.825-1.053.25.433 1.825-1.054-.25-.433z" stroke="#592F03" stroke-dasharray="2 2"/></svg>