<?xml version="1.0" encoding="utf-8"?><svg width="53" height="59" fill="none" xmlns="http://www.w3.org/2000/svg" viewBox="0 0 53 59"><path opacity=".3" d="M23.763 1.58L25.588.527l.25.433.662-.383.662.383.25-.433 1.825 1.053-.25.433 1.825 1.054.25-.433 1.825 1.054-.25.433 1.825 1.053.25-.433 1.825 1.054-.25.433 1.825 1.053.25-.433 1.824 1.054-.25.433 1.825 1.053.25-.433 1.825 1.054-.25.433 1.825 1.053.25-.432 1.825 1.053-.25.433 1.825 1.054.25-.433 1.824 1.053-.25.433.663.383v.765h.5v2.107h-.5v2.107h.5v2.107h-.5v2.107h.5v2.107h-.5v2.107h.5v2.108h-.5v2.107h.5v2.107h-.5v2.107h.5v2.107h-.5v2.107h.5v2.107h-.5v.765l-.663.383.25.433-1.825 1.053-.25-.433-1.824 1.054.25.433-1.825 1.053-.25-.432-1.825 1.053.25.433-1.825 1.054-.25-.433-1.825 1.053.25.433-1.825 1.054-.25-.433-1.824 1.053.25.433-1.825 1.054-.25-.433-1.825 1.053.25.434-1.825 1.053-.25-.433-1.825 1.054.25.433-1.825 1.053-.25-.433-.662.383-.662-.383-.25.433-1.825-1.053.25-.433-1.825-1.054-.25.433-1.825-1.053.25-.434-1.825-1.053-.25.433-1.825-1.054.25-.433-1.825-1.053-.25.433-1.824-1.054.25-.433-1.825-1.053-.25.433-1.825-1.054.25-.433-1.825-1.053-.25.432-1.825-1.053.25-.433-1.824-1.054-.25.433-1.825-1.053.25-.433-.663-.383v-.765h-.5V41.09h.5v-2.107h-.5v-2.107h.5v-2.107h-.5V32.66h.5v-2.107h-.5v-2.108h.5V26.34h-.5v-2.107h.5v-2.107h-.5v-2.107h.5V17.91h-.5v-2.107h.5v-.765l.663-.383-.25-.433L3.69 13.17l.25.433 1.824-1.054-.25-.433 1.825-1.053.25.432 1.825-1.053-.25-.433 1.825-1.054.25.433 1.825-1.053-.25-.433 1.825-1.054.25.433 1.824-1.053-.25-.433 1.825-1.054.25.433 1.825-1.053-.25-.434 1.825-1.053.25.433 1.825-1.054-.25-.433z" stroke="#592F03" stroke-dasharray="2 2"/></svg>